<?xml version="1.0" encoding="utf-8"?>
<!-- Generator: Adobe Illustrator 19.2.1, SVG Export Plug-In . SVG Version: 6.00 Build 0)  -->
<svg version="1.1" id="Capa_1" xmlns="http://www.w3.org/2000/svg" xmlns:xlink="http://www.w3.org/1999/xlink" x="0px" y="0px"
	 viewBox="0 0 100 100" style="enable-background:new 0 0 100 100;" xml:space="preserve">
<style type="text/css">
	.st0{fill:#3D122A;}
</style>
<g>
	<path class="st0" d="M28.1,94.9c0-8.4,0.1-16.5,0-24.6c0-2.5,0.8-3.4,3.4-3.4c12.3,0.1,24.6,0.1,36.9,0c2.8,0,3.6,0.8,3.6,3.6
		c-0.2,7.6,0,15.3,0,22.9c0,0.5,0.2,0.9,0.3,1.5c1.1,0,2.2,0,3.6,0c0-7.4,0-14.6,0-21.8c1-0.1,1.7-0.3,2.2-0.3c3.3,0.4,5-1,5.5-4.4
		c0.4-2.7,1.1-5.3,1.9-7.9c0.9-2.9-0.5-3.9-3.1-3.9c-2.2,0-4.4,0-6.6,0c-19.1,0-38.2,0-57.3,0c-4.2,0-4.9,0.8-4,4.8
		c0.6,2.9,1.2,5.8,2.2,8.6c0.4,1.1,2,2.6,2.9,2.6c4.2-0.5,4.5,1.8,4.4,5.1c-0.2,5.7-0.1,11.5-0.1,17.5C25.7,95.1,26.7,95,28.1,94.9z
		 M28.7,52.4c14.4,0,28.6,0,42.7,0c1-8.3-4.9-16-12.7-17c-1-0.1-2.3,0.6-3.1,1.3c-1.9,1.6-3.7,3.5-6.2,5.9c-1.8-2.2-3.3-4.2-5-5.9
		c-0.7-0.7-2.1-1.4-3.1-1.2C33.2,36.5,27.6,44,28.7,52.4z M50,4.8c-7.1,0-13.2,6-13.3,13.1c0,7.1,6,13.1,13.2,13.1
		c7.4,0,13.2-5.8,13.2-13.1C63.1,10.8,57.2,4.9,50,4.8z"/>
	<path class="st0" d="M28.1,94.9c-1.4,0.1-2.4,0.1-4,0.2c0-6-0.1-11.8,0.1-17.5c0.1-3.3-0.2-5.5-4.4-5.1c-0.9,0.1-2.5-1.4-2.9-2.6
		c-1-2.8-1.6-5.7-2.2-8.6c-0.9-4.1-0.3-4.8,4-4.8c19.1,0,38.2,0,57.3,0c2.2,0,4.4,0,6.6,0c2.6,0,3.9,1,3.1,3.9
		c-0.8,2.6-1.5,5.2-1.9,7.9c-0.5,3.4-2.2,4.8-5.5,4.4c-0.6-0.1-1.2,0.1-2.2,0.3c0,7.2,0,14.4,0,21.8c-1.5,0-2.5,0-3.6,0
		c-0.1-0.5-0.3-1-0.3-1.5c0-7.6-0.1-15.3,0-22.9c0.1-2.8-0.8-3.6-3.6-3.6c-12.3,0.1-24.6,0.1-36.9,0c-2.6,0-3.4,0.9-3.4,3.4
		C28.2,78.5,28.1,86.6,28.1,94.9z"/>
	<path class="st0" d="M28.7,52.4c-1.1-8.4,4.5-15.9,12.5-16.9c1-0.1,2.4,0.5,3.1,1.2c1.7,1.7,3.2,3.7,5,5.9c2.5-2.4,4.2-4.3,6.2-5.9
		c0.8-0.7,2.1-1.4,3.1-1.3c7.8,1,13.7,8.7,12.7,17C57.3,52.4,43.1,52.4,28.7,52.4z"/>
	<path class="st0" d="M50,4.8c7.2,0,13.1,5.9,13.1,13.2c0,7.3-5.8,13.1-13.2,13.1c-7.2,0-13.2-6-13.2-13.1
		C36.8,10.9,42.9,4.8,50,4.8z"/>
</g>
<rect x="35.3" y="77.9" class="st0" width="30.5" height="2.3"/>
<rect x="35.3" y="81.9" class="st0" width="30.5" height="2.3"/>
</svg>
