<?xml version="1.0" encoding="utf-8"?>
<!-- Generator: Adobe Illustrator 19.2.1, SVG Export Plug-In . SVG Version: 6.00 Build 0)  -->
<svg version="1.1" id="Capa_1" xmlns="http://www.w3.org/2000/svg" xmlns:xlink="http://www.w3.org/1999/xlink" x="0px" y="0px"
	 viewBox="0 0 100 26.8" style="enable-background:new 0 0 100 26.8;" xml:space="preserve">
<style type="text/css">
	.st0{fill:#FF5000;}
	.st1{fill:#606A70;}
</style>
<g>
	<g id="Layer_2">
		<g id="Layer_1-2">
			<path class="st0" d="M28.3,24h-1.9v-6.2c0-1.7-0.6-2.6-2.4-2.6c-1.1,0-2.9,0.6-2.9,3.3V24h-1.8V14H21v1.4h0
				c0.8-1.1,2-1.7,3.3-1.7c1.7,0,3.9,0.6,3.9,3.5L28.3,24z"/>
			<path class="st0" d="M40.9,20.8c-0.2,1.1-1,2.1-2,2.8c-0.5,0.3-1.2,0.7-3,0.7c-3.1,0-4.9-2.1-4.9-5c0-3.1,1.6-5.6,5.3-5.6
				c3.2,0,4.7,2.3,4.7,5.9H33c0,2.1,1.1,3.3,3.2,3.3c1.7,0,2.8-1.2,2.8-2L40.9,20.8z M39.2,18.2c-0.1-1.6-0.8-3-3.1-3
				c-1.7,0-3,1.3-3.1,3H39.2z"/>
			<path class="st0" d="M43.9,17.1c0.1-2.4,1.8-3.3,4.5-3.3c0.9,0,4,0.2,4,2.8v5.8c0,0.3,0.2,0.6,0.5,0.6c0,0,0.1,0,0.2,0
				c0.2,0,0.4,0,0.6-0.1V24c-0.3,0.1-0.7,0.2-1,0.2c-1.6,0-1.9-0.8-2-1.5c-1,1.1-2.4,1.7-3.9,1.6c-2,0-3.4-1.2-3.4-2.9
				c0-0.8,0.3-2.8,3.3-3.1l3-0.3c0.4,0,1-0.2,1-1.2c0-1.1-0.8-1.6-2.6-1.6c-2.1,0-2.4,1.2-2.5,1.9L43.9,17.1z M50.5,18.9
				c-0.3,0.2-0.8,0.4-3.1,0.6c-0.9,0.1-2.4,0.4-2.4,1.6c0,1.1,0.6,1.7,2,1.7c1.7,0,3.4-1,3.4-2.4L50.5,18.9z"/>
			<path class="st0" d="M58.1,24h-1.8V14h1.7v1.7h0c0.7-1.2,1.7-2,3.1-2c0.2,0,0.3,0,0.5,0.1v1.7H61c-1.7,0-2.9,1.2-2.9,2.7L58.1,24
				z"/>
			<path class="st1" d="M69.9,16.8c0-0.6-0.3-1.7-2.6-1.7c-0.6,0-2.2,0.2-2.2,1.4c0,0.8,0.6,1,2,1.3l1.8,0.4
				c2.3,0.5,3.1,1.3,3.1,2.6c0,2.1-1.9,3.3-4.3,3.3c-4.3,0-4.7-2.3-4.7-3.5h1.8c0.1,0.8,0.3,2,2.9,2c1.3,0,2.5-0.5,2.5-1.6
				c0-0.8-0.6-1.1-2.2-1.4l-2.1-0.5c-1.5-0.3-2.5-1-2.5-2.4c0-2.2,2-3.2,4.2-3.2c3.9,0,4.2,2.6,4.2,3.1L69.9,16.8z"/>
			<path class="st1" d="M79.2,13.7c3.5,0,5.1,2.7,5.1,5.3s-1.6,5.3-5.1,5.3c-3.5,0-5.1-2.7-5.1-5.3S75.7,13.7,79.2,13.7z M79.2,22.8
				c2.7,0,3.2-2.5,3.2-3.8s-0.6-3.8-3.2-3.8c-2.6,0-3.2,2.5-3.2,3.8C76,20.3,76.5,22.8,79.2,22.8L79.2,22.8z"/>
			<path class="st1" d="M89.3,15.4V24h-1.9v-8.6h-1.5V14h1.5v-1.7c0-1.5,1.1-2.2,2.9-2.2c0.3,0,0.6,0,0.8,0v1.5c-0.2,0-0.5,0-0.7,0
				c-0.8,0-1.1,0.4-1.1,1.2V14h1.8v1.4H89.3z"/>
			<path class="st1" d="M95.6,15.4v6.5c0,0.8,0.7,0.8,1.1,0.8h0.6V24c-0.7,0.1-1.2,0.1-1.4,0.1c-1.8,0-2.2-0.9-2.2-2.1v-6.6h-1.5V14
				h1.5v-2.8h1.9V14h1.7v1.4H95.6z"/>
			<path class="st0" d="M17.1,8.8c-0.4-0.3-0.9-0.5-1.4-0.5h-1.8L13.2,9l0,0h2.5c0.3,0,0.7,0.1,1,0.3c0.2,0.1,0.3,0.4,0.3,0.6
				c0,0.5-0.6,0.9-1.3,0.9h-2.4l0.8,0.8h1.6c1.1,0,2.1-0.8,2.1-1.7C17.7,9.5,17.5,9,17.1,8.8z"/>
			<path class="st0" d="M10.7,13.3L10.7,13.3l0,2.7c0,0.7-0.4,1.3-0.9,1.3S8.8,16.6,8.8,16v-2.6L8,14.1V16c0,1.1,0.8,2,1.7,2
				c0.9,0,1.7-0.9,1.7-2v-2L10.7,13.3z"/>
			<path class="st0" d="M9.7,2C9.2,2,8.8,2.2,8.5,2.6C8.2,3,8,3.5,8,4v1.9l0.8,0.7l0,0V4.1c0-0.3,0.1-0.7,0.3-0.9
				c0.1-0.2,0.4-0.3,0.6-0.3c0.5,0,0.9,0.6,0.9,1.3v2.5l0.8-0.7V4C11.4,2.9,10.7,2,9.7,2z"/>
			<path class="st0" d="M6.3,10.9H3.8c-0.7,0-1.3-0.4-1.3-0.9c0-0.3,0.1-0.5,0.3-0.6C3.2,9.1,3.5,9,3.8,9h2.5L5.5,8.3H3.8
				c-0.5,0-1,0.2-1.4,0.5C2,9,1.8,9.5,1.8,10c0,0.9,0.9,1.7,2.1,1.7h1.7L6.3,10.9z"/>
			<path class="st1" d="M15.3,12.9L14,11.7l-0.8-0.8l-0.1-0.1c-0.2-0.2-0.4-0.6-0.4-0.9c0-0.3,0.1-0.7,0.4-0.9l0,0l0.8-0.8l1.2-1.2
				c0.4-0.4,0.7-1,0.7-1.6c0-0.4-0.2-0.8-0.5-1.1c-0.7-0.7-1.9-0.5-2.7,0.3l-1.2,1.2l-0.8,0.8l0,0c-0.5,0.5-1.3,0.5-1.8,0l0,0L8,5.9
				L6.6,4.6c-0.8-0.8-2-0.9-2.7-0.2C3.6,4.6,3.5,5,3.5,5.4C3.5,6,3.8,6.6,4.2,7l1.3,1.3l0.8,0.8l0,0c0.5,0.5,0.5,1.3,0,1.8
				c0,0,0,0,0,0l-0.1,0.1l-0.8,0.8l-1.1,1.1c-0.4,0.4-0.7,1-0.7,1.6c0,0.4,0.2,0.8,0.5,1.1C4.8,16.2,6,16,6.8,15.2L8,14.1l0.8-0.8
				l0.1-0.1c0.5-0.5,1.3-0.5,1.8,0l0,0l0.7,0.7l1.4,1.4c0.8,0.8,2,0.9,2.7,0.2c0.3-0.3,0.5-0.7,0.4-1.1C16,13.9,15.8,13.3,15.3,12.9
				z M15,15c-0.4,0.4-1.1,0.2-1.6-0.2l-2.2-2.1c-0.8-0.8-2.1-0.8-3,0l-2,2c-0.5,0.5-1.2,0.6-1.6,0.3c-0.1-0.1-0.2-0.4-0.2-0.6
				c0-0.4,0.2-0.7,0.5-1l2-2c0.8-0.8,0.8-2.1,0-2.9c0,0,0,0,0,0L4.8,6.4c-0.3-0.3-0.5-0.6-0.5-1c0-0.2,0.1-0.4,0.2-0.5
				c0.4-0.4,1.1-0.2,1.6,0.2l2.2,2.1c0.8,0.8,2.1,0.8,3,0l2-2c0.5-0.5,1.2-0.6,1.6-0.3C15,5.1,15,5.3,15,5.5c0,0.4-0.2,0.7-0.5,1
				l-2,2c-0.8,0.8-0.8,2.1,0,2.9c0,0,0,0,0,0l2.2,2.1c0.3,0.3,0.4,0.6,0.5,1C15.3,14.7,15.2,14.9,15,15z"/>
		</g>
	</g>
</g>
</svg>
