<?xml version="1.0" encoding="utf-8"?>
<!-- Generator: Adobe Illustrator 19.2.1, SVG Export Plug-In . SVG Version: 6.00 Build 0)  -->
<svg version="1.1" id="Capa_1" xmlns="http://www.w3.org/2000/svg" xmlns:xlink="http://www.w3.org/1999/xlink" x="0px" y="0px"
	 viewBox="0 0 100 100" style="enable-background:new 0 0 100 100;" xml:space="preserve">
<style type="text/css">
	.st0{fill:#3D122A;}
	.st1{fill:#3D122A;stroke:#FFFFFF;stroke-miterlimit:10;}
	.st2{enable-background:new    ;}
</style>
<g>
	<g>
		<path class="st0" d="M32.3,79.3c0-6.8,0.1-13.3,0-19.9c0-2.1,0.6-2.8,2.7-2.7c10,0.1,19.9,0.1,29.9,0c2.2,0,2.9,0.7,2.9,2.9
			c-0.1,6.2,0,12.3,0,18.5c0,0.4,0.2,0.7,0.2,1.2c0.9,0,1.8,0,2.9,0c0-6,0-11.8,0-17.7c0.8-0.1,1.3-0.3,1.8-0.2
			c2.7,0.3,4.1-0.8,4.4-3.5c0.3-2.2,0.9-4.3,1.5-6.4c0.7-2.3-0.4-3.1-2.5-3.2c-1.8,0-3.6,0-5.4,0c-15.4,0-30.9,0-46.3,0
			c-3.4,0-3.9,0.6-3.2,3.9c0.5,2.3,1,4.7,1.8,6.9c0.3,0.9,1.6,2.1,2.4,2.1c3.4-0.4,3.7,1.5,3.6,4.1c-0.1,4.6,0,9.3,0,14.1
			C30.4,79.4,31.2,79.4,32.3,79.3z M32.8,44.9c11.6,0,23.1,0,34.5,0C68.1,38.3,63.4,32,57,31.2c-0.8-0.1-1.8,0.5-2.5,1
			c-1.6,1.3-3,2.8-5,4.8c-1.5-1.8-2.7-3.4-4.1-4.8c-0.6-0.6-1.7-1.1-2.5-1C36.4,32.1,31.9,38.2,32.8,44.9z M50,6.5
			c-5.7,0-10.7,4.9-10.7,10.6c0,5.8,4.9,10.6,10.7,10.6c5.9,0,10.7-4.7,10.6-10.6C60.6,11.3,55.8,6.5,50,6.5z"/>
		<path class="st0" d="M32.3,79.3c-1.1,0.1-2,0.1-3.3,0.2c0-4.9-0.1-9.5,0-14.1c0.1-2.6-0.1-4.5-3.6-4.1c-0.7,0.1-2-1.2-2.4-2.1
			c-0.8-2.2-1.3-4.6-1.8-6.9c-0.7-3.3-0.2-3.9,3.2-3.9c15.4,0,30.9,0,46.3,0c1.8,0,3.6,0,5.4,0c2.1,0,3.2,0.8,2.5,3.2
			c-0.6,2.1-1.2,4.2-1.5,6.4c-0.4,2.7-1.7,3.8-4.4,3.5c-0.5-0.1-1,0.1-1.8,0.2c0,5.8,0,11.7,0,17.7c-1.2,0-2,0-2.9,0
			c-0.1-0.4-0.2-0.8-0.2-1.2c0-6.2-0.1-12.3,0-18.5c0-2.2-0.7-2.9-2.9-2.9c-10,0.1-19.9,0.1-29.9,0c-2.1,0-2.8,0.7-2.7,2.7
			C32.4,66,32.3,72.6,32.3,79.3z"/>
		<path class="st0" d="M32.8,44.9c-0.9-6.8,3.7-12.8,10.1-13.7c0.8-0.1,1.9,0.4,2.5,1c1.4,1.4,2.6,3,4.1,4.8c2-1.9,3.4-3.4,5-4.8
			c0.7-0.6,1.7-1.1,2.5-1c6.3,0.8,11,7,10.3,13.7C55.9,44.9,44.4,44.9,32.8,44.9z"/>
		<path class="st0" d="M50,6.5c5.9,0,10.6,4.8,10.6,10.7S55.9,27.8,50,27.8c-5.8,0-10.7-4.9-10.7-10.6C39.3,11.4,44.2,6.5,50,6.5z"
			/>
	</g>
	<rect x="38.1" y="65.5" class="st0" width="24.7" height="1.9"/>
	<rect x="38.1" y="68.8" class="st0" width="24.7" height="1.9"/>
</g>
<g class="st2">
	<path class="st0" d="M33.7,91.9V95H32v-8.5h3.4c1,0,1.8,0.3,2.3,0.8s0.8,1.2,0.8,2s-0.3,1.5-0.8,2s-1.3,0.7-2.3,0.7H33.7z
		 M33.7,90.6h1.7c0.5,0,0.8-0.1,1.1-0.4s0.4-0.6,0.4-1c0-0.4-0.1-0.7-0.4-1s-0.6-0.4-1.1-0.4h-1.7V90.6z"/>
	<path class="st0" d="M41.5,95h-1.7v-9.1h1.7V95z"/>
	<path class="st0" d="M46.6,95c-0.1-0.1-0.1-0.3-0.2-0.5s-0.1-0.3-0.1-0.5c-0.2,0.3-0.4,0.6-0.7,0.8s-0.6,0.3-1,0.3
		c-0.7,0-1.2-0.2-1.5-0.5s-0.5-0.8-0.5-1.4c0-0.6,0.2-1.1,0.7-1.4s1.2-0.5,2.1-0.5h1v-0.5c0-0.3-0.1-0.5-0.2-0.7s-0.4-0.3-0.7-0.3
		c-0.3,0-0.5,0.1-0.6,0.2s-0.2,0.3-0.2,0.6l-1.7,0l0,0c0-0.5,0.2-1,0.7-1.4s1.1-0.6,1.9-0.6c0.8,0,1.4,0.2,1.8,0.6s0.7,0.9,0.7,1.6
		v2.6c0,0.3,0,0.6,0.1,0.8s0.1,0.5,0.2,0.8H46.6z M45.1,93.9c0.3,0,0.6-0.1,0.8-0.2s0.4-0.3,0.5-0.5v-0.9h-1c-0.4,0-0.6,0.1-0.8,0.3
		s-0.3,0.4-0.3,0.7c0,0.2,0.1,0.4,0.2,0.5S44.8,93.9,45.1,93.9z M45.7,86.2h1.8l0,0l-1.6,1.5h-1.4L45.7,86.2z"/>
	<path class="st0" d="M51.4,87.1v1.6h1.1v1.2h-1.1v3.2c0,0.2,0.1,0.4,0.2,0.5s0.2,0.2,0.4,0.2c0.1,0,0.2,0,0.2,0s0.1,0,0.2,0
		l0.1,1.2c-0.2,0.1-0.3,0.1-0.5,0.1s-0.3,0-0.5,0c-0.6,0-1-0.2-1.4-0.5s-0.5-0.8-0.5-1.5v-3.2h-0.9v-1.2h0.9v-1.6H51.4z"/>
	<path class="st0" d="M55.4,87.1h-1.7v-1.3h1.7V87.1z M55.4,95h-1.7v-6.3h1.7V95z"/>
	<path class="st0" d="M59.4,93.8c0.3,0,0.5-0.1,0.7-0.3s0.3-0.4,0.3-0.7H62l0,0c0,0.6-0.2,1.2-0.7,1.6s-1.1,0.6-1.9,0.6
		c-0.9,0-1.7-0.3-2.2-0.9s-0.8-1.4-0.8-2.3v-0.2c0-0.9,0.3-1.7,0.8-2.3s1.2-0.9,2.2-0.9c0.8,0,1.4,0.2,1.9,0.7s0.7,1,0.7,1.8l0,0
		h-1.6c0-0.3-0.1-0.6-0.3-0.8s-0.4-0.3-0.7-0.3c-0.5,0-0.8,0.2-1,0.5c-0.2,0.4-0.3,0.8-0.3,1.4v0.2c0,0.6,0.1,1,0.3,1.4
		C58.6,93.6,59,93.8,59.4,93.8z"/>
	<path class="st0" d="M66.7,95c-0.1-0.1-0.1-0.3-0.2-0.5s-0.1-0.3-0.1-0.5c-0.2,0.3-0.4,0.6-0.7,0.8s-0.6,0.3-1,0.3
		c-0.7,0-1.2-0.2-1.5-0.5s-0.5-0.8-0.5-1.4c0-0.6,0.2-1.1,0.7-1.4s1.2-0.5,2.1-0.5h1v-0.5c0-0.3-0.1-0.5-0.2-0.7s-0.4-0.3-0.7-0.3
		c-0.3,0-0.5,0.1-0.6,0.2s-0.2,0.3-0.2,0.6l-1.7,0l0,0c0-0.5,0.2-1,0.7-1.4s1.1-0.6,1.9-0.6c0.8,0,1.4,0.2,1.8,0.6s0.7,0.9,0.7,1.6
		v2.6c0,0.3,0,0.6,0.1,0.8s0.1,0.5,0.2,0.8H66.7z M65.1,93.9c0.3,0,0.6-0.1,0.8-0.2s0.4-0.3,0.5-0.5v-0.9h-1c-0.4,0-0.6,0.1-0.8,0.3
		s-0.3,0.4-0.3,0.7c0,0.2,0.1,0.4,0.2,0.5S64.9,93.9,65.1,93.9z"/>
</g>
</svg>
