<?xml version="1.0" encoding="utf-8"?>
<!-- Generator: Adobe Illustrator 19.2.1, SVG Export Plug-In . SVG Version: 6.00 Build 0)  -->
<svg version="1.1" id="Capa_1" xmlns="http://www.w3.org/2000/svg" xmlns:xlink="http://www.w3.org/1999/xlink" x="0px" y="0px"
	 viewBox="0 0 100 100" style="enable-background:new 0 0 100 100;" xml:space="preserve">
<style type="text/css">
	.st0{fill:#3D122A;}
	.st1{fill:#3D122A;stroke:#FFFFFF;stroke-miterlimit:10;}
</style>
<path class="st0" d="M30.5,56.1c2.8,0,5.4-0.1,8.3-0.1c0.6,0,1,0,1.5,0c0.4-4,3.5-7.2,7.3-8.2c0-1.1,0-2-0.1-3.1
	c-0.1-2.1,0.7-2.8,2.6-3.7c7-3.1,13.9-6.4,20.7-10c3.7-2,4.3-4.7,2.7-7.5c-1.5-2.6-4-3-7.7-1.5c-5,2.1-9.6,4.2-15,5.9
	c-6.1,1.9-12,3.1-16.1,8.4c-0.1,0.1-0.2,0.1-0.6,0.2c-0.7-0.6-1.5-1.3-2.2-2c-4.1-4-6.8-4.1-11.1-0.2c-2.8,2.5-4,5.6-4.1,9.2
	c-0.1,1.8,0,3.4,0,5.2c1.3-0.6,2.7-1,4.2-1C25.8,47.7,30,51.3,30.5,56.1z"/>
<path class="st0" d="M34.6,27.9c6.1-0.1,10.8-4.9,10.8-11c-0.1-6.1-4.9-10.9-11-10.8c-6,0.1-10.9,5.1-10.8,11
	C23.6,23.2,28.6,28,34.6,27.9z"/>
<path class="st0" d="M54.2,41.5L51.3,43l-0.5,5.6c0.9,0.1,1.7,0.2,2.5,0.6L54.2,41.5z"/>
<path class="st0" d="M94,9.7c-2.6-0.1-35.4-1.6-35.4-1.6s-3-0.7-3.3,2.1s-2.1,15.5-2.1,15.5l3.1-1.2L57.9,13c0,0-0.1-1.6,1-1.6
	s33.1,1.3,33.1,1.3s1.6,0.2,1.4,2.1c-0.2,1.9-4.7,40.5-4.7,40.5l2.9,0.6l4.9-43C96.5,13,96.9,9.9,94,9.7z"/>
<polygon class="st0" points="81.1,30.8 79.8,45 84.2,45 85.6,28.9 "/>
<polygon class="st0" points="70.8,45 75.2,45 76.7,32.3 72.2,34 "/>
<path class="st0" d="M87.4,71.6C79.1,68.5,71.1,69,64.6,76c-10.2-8.2-18.4-8.2-29.3-0.1c-6.6-6.9-14.5-7.3-22.9-4.4
	C8.2,73,5.6,76,5.3,81c29.8,0,59.3,0,89.4,0C94.1,76,91,73,87.4,71.6z"/>
<path class="st1" d="M20.9,67.8c5.3,0,9.5-4.1,9.5-9.5c0-0.3,0-0.7-0.1-1c-0.5-4.8-4.5-8.4-9.4-8.4c-1.5,0-2.9,0.4-4.2,1
	c-3.1,1.6-5.3,4.7-5.3,8.4C11.3,63.5,15.6,67.8,20.9,67.8z"/>
<path class="st1" d="M69.6,58.4c0,5.4,4.2,9.5,9.5,9.4c5.2-0.1,9.5-4.4,9.5-9.6c0-5.1-4.5-9.5-9.7-9.4C73.7,48.8,69.5,53,69.6,58.4z
	"/>
<path class="st1" d="M40.5,57.3c0,0.3-0.1,0.6-0.1,0.9c-0.1,5.3,4,9.5,9.4,9.6c5.2,0.1,9.6-4.2,9.6-9.4c0-4.1-2.5-7.5-6.1-8.9
	c-0.8-0.3-1.6-0.5-2.5-0.6c-0.3,0-0.5-0.1-0.8-0.1c-0.8,0-1.6,0.1-2.4,0.3C43.8,50,40.9,53.2,40.5,57.3z"/>
<polygon class="st0" points="61.8,45 66.2,45 67.3,35.7 62.8,37.5 "/>
<g>
	<path class="st0" d="M35.6,87.8h-2.4V95h-1.7v-7.2h-2.4v-1.3h6.5V87.8z"/>
	<path class="st0" d="M39.5,95c-0.1-0.1-0.1-0.3-0.2-0.5s-0.1-0.3-0.1-0.5c-0.2,0.3-0.4,0.6-0.7,0.8s-0.6,0.3-1,0.3
		c-0.7,0-1.2-0.2-1.5-0.5s-0.5-0.8-0.5-1.4c0-0.6,0.2-1.1,0.7-1.4s1.2-0.5,2.1-0.5h1v-0.5c0-0.3-0.1-0.5-0.2-0.7s-0.4-0.3-0.7-0.3
		c-0.3,0-0.5,0.1-0.6,0.2s-0.2,0.3-0.2,0.6l-1.7,0l0,0c0-0.5,0.2-1,0.7-1.4s1.1-0.6,1.9-0.6c0.8,0,1.4,0.2,1.8,0.6s0.7,0.9,0.7,1.6
		v2.6c0,0.3,0,0.6,0.1,0.8s0.1,0.5,0.2,0.8H39.5z M38,93.9c0.3,0,0.6-0.1,0.8-0.2s0.4-0.3,0.5-0.5v-0.9h-1c-0.4,0-0.6,0.1-0.8,0.3
		s-0.3,0.4-0.3,0.7c0,0.2,0.1,0.4,0.2,0.5S37.7,93.9,38,93.9z"/>
	<path class="st0" d="M44.1,95h-1.7v-9.1h1.7V95z"/>
	<path class="st0" d="M47.3,95h-1.7v-9.1h1.7V95z"/>
	<path class="st0" d="M51.5,95.1c-0.9,0-1.6-0.3-2.2-0.9s-0.8-1.3-0.8-2.2v-0.2c0-0.9,0.3-1.7,0.8-2.3s1.2-0.9,2.1-0.9
		c0.9,0,1.5,0.3,2,0.8s0.7,1.2,0.7,2.1v0.9h-3.8l0,0c0,0.4,0.2,0.8,0.4,1s0.6,0.4,1,0.4c0.4,0,0.7,0,0.9-0.1s0.5-0.2,0.8-0.4
		l0.5,1.1c-0.3,0.2-0.6,0.4-1,0.5S52,95.1,51.5,95.1z M51.3,89.9c-0.3,0-0.6,0.1-0.8,0.4s-0.3,0.6-0.3,1l0,0h2.1v-0.2
		c0-0.4-0.1-0.7-0.3-0.9S51.7,89.9,51.3,89.9z"/>
	<path class="st0" d="M58.4,90.1l-0.6,0c-0.3,0-0.5,0.1-0.6,0.2s-0.3,0.3-0.4,0.4V95H55v-6.3h1.6l0.1,0.9c0.1-0.3,0.3-0.6,0.6-0.8
		s0.5-0.3,0.8-0.3c0.1,0,0.2,0,0.2,0s0.1,0,0.2,0L58.4,90.1z"/>
	<path class="st0" d="M62,95.1c-0.9,0-1.6-0.3-2.2-0.9S59,92.9,59,92v-0.2c0-0.9,0.3-1.7,0.8-2.3s1.2-0.9,2.1-0.9
		c0.9,0,1.5,0.3,2,0.8s0.7,1.2,0.7,2.1v0.9h-3.8l0,0c0,0.4,0.2,0.8,0.4,1s0.6,0.4,1,0.4c0.4,0,0.7,0,0.9-0.1s0.5-0.2,0.8-0.4
		l0.5,1.1c-0.3,0.2-0.6,0.4-1,0.5S62.5,95.1,62,95.1z M61.9,89.9c-0.3,0-0.6,0.1-0.8,0.4s-0.3,0.6-0.3,1l0,0h2.1v-0.2
		c0-0.4-0.1-0.7-0.3-0.9S62.2,89.9,61.9,89.9z"/>
	<path class="st0" d="M69,93.3c0-0.2-0.1-0.3-0.3-0.5s-0.5-0.3-1-0.4C67,92.3,66.4,92,66,91.7s-0.6-0.7-0.6-1.2c0-0.5,0.2-1,0.7-1.4
		s1.1-0.6,1.8-0.6c0.8,0,1.5,0.2,1.9,0.6s0.7,0.9,0.7,1.4l0,0h-1.7c0-0.3-0.1-0.5-0.2-0.6s-0.4-0.2-0.7-0.2c-0.3,0-0.5,0.1-0.7,0.2
		s-0.2,0.3-0.2,0.5c0,0.2,0.1,0.4,0.2,0.5s0.5,0.2,1,0.3c0.8,0.2,1.4,0.4,1.7,0.7s0.6,0.7,0.6,1.3c0,0.6-0.2,1-0.7,1.4
		s-1.1,0.5-1.9,0.5c-0.8,0-1.5-0.2-2-0.6s-0.7-0.9-0.7-1.5l0,0h1.6c0,0.3,0.1,0.6,0.3,0.7S67.7,94,68,94c0.3,0,0.6-0.1,0.7-0.2
		S69,93.5,69,93.3z"/>
</g>
</svg>
