<?xml version="1.0" encoding="utf-8"?>
<!-- Generator: Adobe Illustrator 19.2.1, SVG Export Plug-In . SVG Version: 6.00 Build 0)  -->
<svg version="1.1" id="Capa_1" xmlns="http://www.w3.org/2000/svg" xmlns:xlink="http://www.w3.org/1999/xlink" x="0px" y="0px"
	 viewBox="0 0 100 100" style="enable-background:new 0 0 100 100;" xml:space="preserve">
<style type="text/css">
	.st0{fill:#3D122A;}
</style>
<g>
	<path class="st0" d="M30.5,65.1c2.8,0,5.4-0.1,8.3-0.1c0.6,0,1,0,1.5,0c0.4-4,3.5-7.2,7.3-8.2c0-1.1,0-2-0.1-3.1
		c-0.1-2.1,0.7-2.8,2.6-3.7c7-3.1,13.9-6.4,20.7-10c3.7-2,4.3-4.7,2.7-7.5c-1.5-2.6-4-3-7.7-1.5c-5,2.1-9.9,4.7-15,5.9
		c-6.2,1.4-12,3.1-16.1,8.4c-0.1,0.1-0.2,0.1-0.6,0.2c-0.7-0.6-1.5-1.3-2.2-2c-4.1-4-6.8-4.1-11.1-0.2c-2.8,2.5-4,5.6-4.1,9.2
		c-0.1,1.8,0,3.4,0,5.2c1.3-0.6,2.7-1,4.2-1C25.8,56.7,30,60.3,30.5,65.1z"/>
	<path class="st0" d="M34.6,36.9c6.1-0.1,10.8-4.9,10.8-11c-0.1-6.1-4.9-10.9-11-10.8c-6,0.1-10.9,5.1-10.8,11
		C23.6,32.2,28.6,37,34.6,36.9z"/>
	<path class="st0" d="M54.2,49.5L51.3,51l-0.5,5.6c0.9,0.1,1.7,0.2,2.5,0.6L54.2,49.5z"/>
	<path class="st0" d="M94,17.7c-2.6-0.1-35.4-1.6-35.4-1.6s-3-0.7-3.3,2.1s-1.1,10.5-1.1,10.5l3.1-0.6l0.6-7c0,0-0.1-1.6,1-1.6
		s33.1,1.3,33.1,1.3s1.6,0.2,1.4,2.1c-0.2,1.9-4.7,40.5-4.7,40.5l2.9,0.6l4.9-43C96.5,21,96.9,17.9,94,17.7z"/>
	<polygon class="st0" points="81.1,38.8 79.8,53 84.2,53 85.6,36.9 	"/>
	<polygon class="st0" points="70.8,53 75.2,53 76.7,40.3 72.2,42 	"/>
	<path class="st0" d="M87.4,79.6C79.1,76.5,71.1,77,64.6,84c-10.2-8.2-18.4-8.2-29.3-0.1c-6.6-6.9-14.5-7.3-22.9-4.4
		C8.2,81,5.6,84,5.3,89c29.8,0,59.3,0,89.4,0C94.1,84,91,81,87.4,79.6z"/>
	<path class="st0" d="M20.9,75.8c5.3,0,9.5-4.1,9.5-9.5c0-0.3,0-0.7-0.1-1c-0.5-4.8-4.5-8.4-9.4-8.4c-1.5,0-2.9,0.4-4.2,1
		c-3.1,1.6-5.3,4.7-5.3,8.4C11.3,71.5,15.6,75.8,20.9,75.8z"/>
	<path class="st0" d="M69.6,66.4c0,5.4,4.2,9.5,9.5,9.4c5.2-0.1,9.5-4.4,9.5-9.6c0-5.1-4.5-9.5-9.7-9.4C73.7,56.8,69.5,61,69.6,66.4
		z"/>
	<path class="st0" d="M40.5,65.3c0,0.3-0.1,0.6-0.1,0.9c-0.1,5.3,4,9.5,9.4,9.6c5.2,0.1,9.6-4.2,9.6-9.4c0-4.1-2.5-7.5-6.1-8.9
		c-0.8-0.3-1.6-0.5-2.5-0.6c-0.3,0-0.5-0.1-0.8-0.1c-0.8,0-1.6,0.1-2.4,0.3C43.8,58,40.9,61.2,40.5,65.3z"/>
</g>
<polygon class="st0" points="61.8,53 66.2,53 67.3,43.7 62.8,45.5 "/>
</svg>
